<svg xmlns="http://www.w3.org/2000/svg" width="286.031" height="301.534">
    <path d="M286.004 207.991c0-7.126-14.47-36.059-40.8-49.58-24.161-12.407-56.27-20.058-111.871 14.124.332-4.678.521-10.349.723-17.068.252-8.515.516-17.319 1.328-23.01 1.166-8.165 10.731-22.996 18.418-34.911 3.264-5.061 6.218-9.642 8.456-13.538 10.575 3.238 20.51-.984 26.795-3.657.446-.189.939-.399 1.433-.603 2.189 5.514 7.426 9.705 15.146 12.015 8.658 2.592 20.212 2.468 27.168-1.128 2.509 1.039 5.22 1.396 7.039 1.513 2.036.131 8.39.256 13.053-2.716 5.51-.448 10.306-2.793 13.072-6.462 1.099-1.457 1.82-3.069 2.135-4.719 3.707-1.503 9.14-3.782 11.007-8.635l.711-1.936-.672-1.91c-.133-.377-.608-2.041-1.068-3.65C265.23 17.211 255.849.407 244.595 2.148c-2.897.45-11.766.315-21.156.17-32.835-.505-63.333-.343-75.704 7.08-6.59 3.954-26.063 25.841-57.288 61.228-27.655 31.339-58.999 66.861-69.094 73.974-19.562 13.781-19.039 37.732-18.532 60.894.082 3.771.167 7.67.158 11.421-.007 2.928-.692 6.019-1.418 9.292C.792 229.666 0 233.245 0 236.867c0 10.686 20.529 24.933 49.984 34.722 52.791 29.135 93.836 31.971 141.317 31.971l3.278-.003c30.789-.077 78.214-21.955 84.028-25.587 3.277-2.048 7.767-4.854 7.403-68.676l-.006-1.303" style="fill:#000" transform="translate(0 -2.026)"/>
    <path d="M224.604 20.333c-1.777-.203-3.553-.463-5.329-.884 1.776-.421 3.552-.681 5.329-.884a78.397 78.397 0 0 1 5.086-.393c1.45-.461 2.859-.875 4.426-1.179.202-.038.422-.072.671-.101l.232-.016.12-.006c.103.002.209.01.312.028a1.3 1.3 0 0 1 .607.238c.189.116.412.345.403.354l.261.341.183.289c.13.195.219.376.325.565.39.748.714 1.499.963 2.281.262.776.443 1.577.559 2.388.121.811.186 1.635.106 2.461-.095 1.633-.639 3.296-1.707 4.463.406-1.524.369-2.985.118-4.387a16.812 16.812 0 0 0-1.346-4.037 18.307 18.307 0 0 0-.991-1.852c-.072-.112-.143-.23-.216-.335l-.091.016c-1.384.293-2.887.674-4.342 1.01l-.231.053-.121-.005a77.603 77.603 0 0 1-5.327-.408" style="fill:#f8d2b5;fill-opacity:1" transform="translate(0 -2.026)"/>
    <path d="M215.197 24.796c-1.776-.205-3.552-.465-5.328-.885 1.776-.421 3.552-.682 5.328-.885a78.482 78.482 0 0 1 5.087-.393c1.448-.461 2.858-.876 4.425-1.178.203-.038.422-.073.671-.102l.233-.017.121-.005c.101.002.205.012.31.028.205.023.405.098.606.238.19.115.413.346.404.354l.26.341.185.289c.129.195.218.377.325.565.39.75.714 1.5.964 2.281.26.775.442 1.576.559 2.389.119.812.184 1.634.105 2.46-.096 1.634-.639 3.296-1.708 4.463.407-1.523.369-2.984.118-4.385a16.84 16.84 0 0 0-1.345-4.039 18.53 18.53 0 0 0-.992-1.852c-.072-.112-.143-.231-.214-.335l-.093.016c-1.384.293-2.887.676-4.342 1.01l-.23.053-.121-.004c-1.776-.066-3.552-.22-5.328-.407M176.555 240.816l.066.059-.019-.007-.047-.052M271.916 269.134c-3.624 1.957-14.827 7.124-28.444 12.11-1.741-.191-3.48-.351-5.193-.715-2.067-.317-4.083-.865-6.106-1.365-1.989-.623-3.99-1.197-5.917-1.991-3.875-1.503-7.631-3.31-11.164-5.489-7.094-4.313-13.46-9.732-19.134-15.781-2.842-3.025-5.514-6.208-8.084-9.49-.632-.804-1.25-1.632-1.871-2.447 4.204 1.054 8.144 1.519 11.884 1.519 11.639 0 21.386-4.414 31.444-8.969 12.918-5.852 26.256-11.866 45.64-9.956-.366 31.941-2.338 40.508-3.055 42.574" style="fill:#f8d2b5;fill-opacity:1" transform="translate(0 -2.026)"/>
    <path d="m199.614 292.333.057-.44c-11.791-1.303-23.549-2.898-35.174-5.118-11.603-2.244-23.173-4.989-34.026-9.512-5.39-2.29-10.652-5.001-15.155-8.693-2.225-1.817-4.382-3.963-6.571-5.957l-6.543-6.086c-4.394-4.022-8.73-8.154-13.638-11.627-2.466-1.696-5.181-3.148-8.136-3.781a19.344 19.344 0 0 0-2.925-.382c12.788-8.532 28.229-27.994 39-42.923 3.758 13.989 16.024 20.114 31.038 27.6 5.808 2.898 11.814 5.893 18.105 9.685 3.929 2.368 7.639 4.265 11.163 5.759l-.03.077-.158-.06.023.023c.127.124.226.171.391.351.316.326.634.646.972 1.038.663.737 1.339 1.545 2.017 2.345 1.356 1.607 2.732 3.244 4.143 4.851 2.816 3.219 5.754 6.358 8.863 9.327 6.208 5.937 13.12 11.203 20.703 15.266 3.776 2.054 7.763 3.712 11.834 5.041 2.025.707 4.118 1.19 6.189 1.715 2.103.402 4.192.848 6.319 1.057.93.145 1.866.227 2.804.291-13.351 4.753-28.626 9.139-41.265 10.153" style="fill:#f8d2b5;fill-opacity:1" transform="translate(0 -2.026)"/>
    <path d="m54.864 261.717-.453-.251-.491-.161c-6.113-2.015-11.472-4.109-16.154-6.191 9.297-2.269 22.59-6.071 34.866-11.615 1.472-.665 3.001-1.532 4.569-2.56a19.07 19.07 0 0 1 3.15.514c2.868.735 5.451 2.246 7.813 4.006 4.693 3.6 8.857 7.877 13.085 12.059l6.301 6.331 3.156 3.166c1.026 1.062 2.141 2.097 3.275 3.128 4.578 4.054 9.92 7.063 15.373 9.634 10.982 5.079 22.626 8.306 34.291 11.032 2.245.52 4.497.996 6.75 1.47-37.611-1.169-72.642-6.798-115.531-30.562M11 236.672c.034-2.376.649-5.15 1.299-8.084.073-.328.148-.665.221-1.002.674.707 1.41 1.38 2.235 1.993a14.401 14.401 0 0 0 4.637 2.294c1.687.477 3.444.62 5.098.486.57-.042 1.123-.123 1.67-.22-1.93 4.17-4.083 9.924-3.979 14.673-7.23-4.695-10.671-8.544-11.181-10.14M70.369 238.485c-15.088 6.815-32.216 11-40.53 12.794a105.226 105.226 0 0 1-4.686-2.624c-1.144-4.667 2.001-12.496 4.533-17.506.542-.204 1.085-.404 1.594-.644.191-.089.299-.127.554-.261.224-.115.464-.236.649-.353a14.18 14.18 0 0 0 1.081-.719c1.296-.965 2.316-1.941 3.309-2.93a68.826 68.826 0 0 0 2.796-3.005c1.783-2.023 3.461-4.08 5.1-6.158 6.517-8.319 12.51-16.887 18.437-25.505 4.744-6.926 9.386-13.909 13.996-20.912-.717 2.417-1.367 4.87-1.791 7.402-.58 3.38-.595 6.953.202 10.324.774 3.38 2.188 6.504 3.724 9.499.762 1.508 1.601 2.964 2.425 4.429.758 1.458 1.524 2.893 2.001 4.465 1.034 3.103 1.35 6.436 1.091 9.73-.25 3.301-1.04 6.557-2.064 9.73a141.82 141.82 0 0 1-1.659 4.716c-3.813 3.392-7.467 6.041-10.762 7.528" style="fill:#f8d2b5;fill-opacity:1" transform="translate(0 -2.026)"/>
    <path d="M27.689 153.591c11.15-7.856 41.579-42.339 71.007-75.689 23.078-26.152 49.234-55.794 54.698-59.072 10.706-6.422 47.744-5.855 69.876-5.514 10.791.166 18.682.288 22.642-.244l.069.038-.06.004a9.01 9.01 0 0 0-.671.103c-1.568.301-2.977.717-4.426 1.177-1.694.071-3.39.213-5.086.393-1.777.204-3.553.463-5.328.885 1.775.421 3.551.681 5.328.884 1.777.19 3.552.342 5.327.408l.121.004.231-.052c1.455-.335 2.959-.718 4.343-1.011l.091-.016c.072.105.144.224.214.335.356.582.694 1.209.993 1.852a16.849 16.849 0 0 1 1.346 4.038c.25 1.402.288 2.863-.12 4.386 1.07-1.166 1.613-2.828 1.709-4.462.079-.825.014-1.649-.106-2.46a13.595 13.595 0 0 0-.559-2.389c-.085-.267-.19-.526-.292-.787 3.478 5.093 9.576 17.672 18.464 48.743l.326 1.136c-1.251.719-3.111 1.473-4.067 1.86-.352.143-.758.309-1.188.5l-13.348-36.824 9.112 39.701c-1.001 1.196-1.569 2.74-1.103 4.765-.424.626-2.268 2.053-5.736 2.199l-11.097-45.576 6.355 47.408c-2.003 1.154-8.077 1.23-10.026.042l-3.954-4.946c-.01-.27-.01-.543-.019-.812-.218-5.625-.587-11.21-.95-16.8l-.551-8.377c-.153-2.793-.403-5.585-.364-8.38-.27 2.79-.249 5.597-.327 8.395l-.141 8.396c-.098 5.594-.19 11.193-.434 16.755a130.336 130.336 0 0 1-.242 4.145l-.015.147-1.331 1.59c-.4.428-1.404.878-2.815 1.253-1.096.142-2.188.289-3.267.457-.634.1-1.26.219-1.893.324-3.629.227-8.032-.081-12.312-1.489-2.704-.89-7.304-2.942-7.74-6.69a8.419 8.419 0 0 0-.427-1.822c.402-.331.843-.645 1.317-.935 1.93-1.2 4.234-2.025 6.677-2.767.63-.201 1.218-.359 1.991-.658.193-.08.426-.17.771-.395.214-.163.351-.315.462-.46.4-.09.8-.172 1.204-.235.67-.096 1.345-.158 2.016-.125.658.05 1.355.176 1.838.715-.28-.677-1.001-1.107-1.679-1.384-.694-.274-1.421-.447-2.15-.58-.236-.042-.474-.071-.711-.102l.012-.351c-.014-1.489-.239-2.764-.463-4.074-.474-2.591-1.074-5.107-1.735-7.625l-.139-.527-.468.027-10.541.619 9.983.587c.279 2.389.51 4.798.611 7.171.045 1.249.07 2.549-.077 3.635l-.033.189c-.197.044-.425.088-.673.13l-.203-.001.006.035-.793.13c-2.566.414-5.283.938-7.943 2.107-.744.327-1.484.719-2.205 1.175l-.144-.092c-3.617-2.103-7.374-.505-12.128 1.517-6.504 2.766-14.599 6.208-22.347 1.953l-3.82-2.098c-.052-.091-.109-.174-.159-.268-1.23-2.281-1.716-5.189-1.798-8.132-.044-1.478.009-2.981.095-4.493l.13-2.281c.021-.761.083-1.548-.097-2.295.006.76-.223 1.484-.412 2.213l-.637 2.188c-.427 1.465-.828 2.955-1.134 4.488-.598 3.053-.901 6.35-.008 9.763.193.735.464 1.467.787 2.185l-.567 1.202c-1.903 4.027-5.945 10.294-10.224 16.93-8.698 13.485-18.557 28.77-20.063 39.317a91.877 91.877 0 0 0-.583 5.404 947.385 947.385 0 0 0-5.111 11.352c-3.136 7.127-6.213 14.281-8.9 21.651l-.948 2.801a79.13 79.13 0 0 0-.813 2.906c-.517 2.166-.332 4.15-.257 6.108.238 3.904.534 7.724.377 11.562-.102 2.899-.461 5.799-1.181 8.612-7.817 10.409-17.12 21.739-25.659 29.402a134.863 134.863 0 0 0 1.697-4.346c1.136-3.151 2.049-6.413 2.422-9.777.378-3.355.178-6.817-.791-10.1l-.389-1.223-.196-.612-.267-.583c-.359-.774-.707-1.572-1.082-2.325-.766-1.478-1.547-2.95-2.243-4.454-1.412-2.993-2.666-6.067-3.277-9.243-.631-3.174-.509-6.416.146-9.602.646-3.191 1.7-6.335 2.794-9.469a312.014 312.014 0 0 1 2.454-6.668c10.696-16.418 21.197-32.949 31.649-49.504l16.689-26.46 8.395-13.195 4.26-6.556c1.451-2.164 2.86-4.36 4.477-6.404-1.685 1.991-3.169 4.143-4.692 6.257l-4.478 6.415-8.829 12.913-17.557 25.893c-11.71 17.254-23.464 34.476-35.436 51.53-5.99 8.523-12.031 17.006-18.19 25.387-6.167 8.365-12.419 16.691-19.031 24.575-1.657 1.962-3.342 3.891-5.067 5.723a63.956 63.956 0 0 1-2.619 2.636c-.877.823-1.786 1.612-2.607 2.175-.199.132-.396.26-.557.344-.092.056-.148.071-.214.105-.031.022-.229.097-.336.144a17.5 17.5 0 0 1-1.534.562c-1.017.31-2.02.511-2.962.543-1.896.076-3.494-.441-4.924-1.579-1.434-1.127-2.657-2.882-3.607-4.886-.624-1.32-1.131-2.749-1.556-4.227a594.667 594.667 0 0 0-.143-9.433c-.465-21.215-.903-41.255 13.87-51.663" style="fill:#f8d2b5;fill-opacity:1" transform="translate(0 -2.026)"/>
    <path d="M240.178 168.196c14.168 7.275 23.968 19.467 29.492 28.612a122.445 122.445 0 0 0-2.798-2.204c-6.089-4.631-12.555-8.708-19.302-12.253-6.753-3.528-13.807-6.498-21.11-8.705-7.3-2.188-14.856-3.639-22.49-3.953-7.626-.344-15.32.462-22.653 2.558a66.797 66.797 0 0 0-10.66 4.038c-3.403 1.561-6.777 3.194-10.205 4.697-6.844 3.039-13.784 5.873-20.891 8.221-1.781.568-3.56 1.158-5.376 1.604-.906.226-1.802.512-2.718.692l-2.747.564c-.921.161-1.85.256-2.776.388-.928.099-1.864.114-2.796.139l-.315-.021 6.057-4.084c57.293-38.64 87.345-32.588 111.288-20.293" style="fill:#f8d2b5;fill-opacity:1" transform="translate(0 -2.026)"/>
    <path d="m122.623 192.716.52.051c.938.003 1.886.016 2.822-.055.935-.104 1.877-.172 2.809-.305l2.782-.483c.93-.154 1.834-.412 2.753-.613 1.843-.394 3.646-.929 5.454-1.447 7.212-2.14 14.269-4.773 21.228-7.613 3.488-1.405 6.919-2.937 10.382-4.399a64.86 64.86 0 0 1 10.481-3.609c7.163-1.811 14.607-2.363 21.955-1.804 14.742 1.11 28.943 6.324 41.795 13.537 6.43 3.633 12.576 7.78 18.294 12.412 2.855 2.315 5.608 4.758 8.156 7.34a56.61 56.61 0 0 1 2.954 3.248l.003.382c.023 4.172.023 8.049.005 11.669-20.623-1.896-35.078 4.645-47.954 10.479-17.377 7.87-32.385 14.671-58.577-1.119-6.478-3.904-12.86-7.087-18.489-9.895-15.21-7.585-26.481-13.211-28.755-26.844zM109.946 181.071c.026-1.909.008-3.856.525-5.463.282-.875.598-1.769.915-2.652l1.078-2.654c3.054-7.053 6.529-13.984 10.06-20.871.251-.489.512-.974.764-1.463-.085 2.372-.157 4.782-.228 7.171-.278 9.316-.698 23.394-2.165 26.331l-.731 1.461a477.106 477.106 0 0 1-11.655 16.45c.548-2.164.912-4.38 1.121-6.602.394-3.91.322-7.861.316-11.708" style="fill:#f8d2b5;fill-opacity:1" transform="translate(0 -2.026)"/>
</svg>
